<svg xmlns="http://www.w3.org/2000/svg" width="39" height="39"><defs><filter id="a" x="730" y="1100" width="39" height="39" filterUnits="userSpaceOnUse"><feFlood result="flood" flood-color="#444"/><feComposite result="composite" operator="in" in2="SourceGraphic"/><feBlend result="blend" in2="SourceGraphic"/></filter></defs><path d="M738.659 1125.7a8.167 8.167 0 01-7.554-4.72 7.137 7.137 0 01.227-6.29 7.845 7.845 0 01-.544-1.03 8.883 8.883 0 01-.085-7.06 9.775 9.775 0 015.661-5.38 10.977 10.977 0 019.543.93 9.906 9.906 0 012.611-1.49 10.206 10.206 0 013.587-.65 9.519 9.519 0 018.8 5.49.8.8 0 00.036.08 7.359 7.359 0 011.241-.1 6.8 6.8 0 016.28 3.91 5.975 5.975 0 01.055 4.75 6.633 6.633 0 01-3.733 3.59 5.376 5.376 0 01-.215 3.54 5.9 5.9 0 01-3.417 3.25 6.411 6.411 0 01-2.294.42 6.393 6.393 0 01-3.9-1.32 7.1 7.1 0 01-2.321 1.43 7.877 7.877 0 01-8.175-1.62 8.136 8.136 0 01-2.732 1.71 8.7 8.7 0 01-3.071.56zm1.539-23.68a9.142 9.142 0 00-3.31.61 8.27 8.27 0 00-4.812 4.55 7.378 7.378 0 00.071 5.87 7.7 7.7 0 00.671 1.2l.271.4-.252.41a5.665 5.665 0 00-.373 5.31 6.679 6.679 0 006.195 3.83 7.137 7.137 0 002.548-.46 6.73 6.73 0 002.7-1.89l.573-.67.563.68a6.327 6.327 0 007.071 1.79 5.985 5.985 0 002.267-1.55l.519-.56.546.53a4.9 4.9 0 003.418 1.37 5.079 5.079 0 001.769-.32 4.435 4.435 0 002.569-2.43 3.886 3.886 0 00-.021-3.06l-.056-.12-.32-.79 1.025-.27c.126-.03.254-.06.38-.1a5.074 5.074 0 002.941-2.78 4.5 4.5 0 00-.042-3.57 5.3 5.3 0 00-4.921-3.02 5.563 5.563 0 00-1.518.2l-.673.18-.223-.67c-.067-.19-.137-.39-.222-.58a8.04 8.04 0 00-7.446-4.61 8.648 8.648 0 00-3.062.56 8.087 8.087 0 00-2.581 1.58l-.442.41-.487-.35a9.3 9.3 0 00-5.334-1.68zm12.378 36.98h-8.771l.224-.93a13.313 13.313 0 00-4.56-12.57l.979-1.13a14.925 14.925 0 015.184 13.13h5.83c.271-5.83 3.535-13.37 3.68-13.7l1.183.6c-.035.08-3.749 8.25-3.749 13.85v.75zm-.744-14.98l-7.577.08-.826-.83 6.161 11.35-1.467-.24.744-4.5 1.467.25zm-2.886-4.28l-2.231-4.49 1.331-.67 2.231 4.49z" transform="translate(-730 -1100)" fill="#fff" fill-rule="evenodd" filter="url(#a)"/></svg>