<svg xmlns="http://www.w3.org/2000/svg" width="37" height="32.97"><path fill="#212121" d="M18.5 3.29a14.607 14.607 0 11-15.072 14.6A14.844 14.844 0 0118.5 3.29zm0 1.33A13.282 13.282 0 114.8 17.89 13.491 13.491 0 0118.5 4.62zm0 3.98h1.37v11.95H18.5V8.6zm-6.851 11.95v-1.33H18.5v1.33h-6.851zm16.643 8.43l.969-.94 4.11 3.98-.969.94zm-19.868-.94l.969.94-4.11 3.98-.969-.94zm26.5-26.05a6.252 6.252 0 01.281 9c-.008 0-9.536-9.27-9.531-9.27a6.679 6.679 0 019.248.27zm-.787.76a5.115 5.115 0 01.319 7.51c.161.14-8.193-7.96-8.041-7.82a5.53 5.53 0 017.72.31zm-7.949-1.53l9.531 9.27-.795.77-9.53-9.27zM2.08 1.99a6.252 6.252 0 00-.281 9c.009 0 9.536-9.27 9.531-9.27a6.679 6.679 0 00-9.252.27zm.787.76a5.115 5.115 0 00-.319 7.51c-.161.14 8.193-7.96 8.041-7.82a5.53 5.53 0 00-7.724.31zm7.949-1.53l-9.53 9.27.794.77 9.53-9.27z" fill-rule="evenodd"/></svg>