<svg xmlns="http://www.w3.org/2000/svg" width="47" height="38"><defs><filter id="a" x="1023" y="1568" width="47" height="38" filterUnits="userSpaceOnUse"><feFlood result="flood" flood-color="#222"/><feComposite result="composite" operator="in" in2="SourceGraphic"/><feBlend result="blend" in2="SourceGraphic"/></filter></defs><path data-name="land working" d="M1058.25 1605.19a11.6 11.6 0 10-11.75-11.6 11.686 11.686 0 0011.75 11.6zm0-21.6a10 10 0 11-10.13 10 10.077 10.077 0 0110.13-10zm0 16.8a6.8 6.8 0 10-6.89-6.8 6.852 6.852 0 006.89 6.8zm0-12a5.2 5.2 0 11-5.27 5.2 5.25 5.25 0 015.27-5.2zm-28.77 17.6a6.4 6.4 0 10-6.48-6.4 6.451 6.451 0 006.48 6.4zm0-11.2a4.8 4.8 0 11-4.86 4.8 4.84 4.84 0 014.86-4.8zm4.86 4.74h15.4l-.68-1.27a10.178 10.178 0 01-.94-4.27 10.4 10.4 0 015.44-9.1l2.74-1.5h-27.63a4.035 4.035 0 00-4.05 4v8a2.452 2.452 0 00.02.27l.15 1.73 1.24-1.18a4.878 4.878 0 018.23 2.53zm12.97-1.61h-11.34a6.906 6.906 0 00-6.49-4.73 6.545 6.545 0 00-3.23.85l-.01-6.65a2.42 2.42 0 012.43-2.4h21.95a11.945 11.945 0 00-4.12 9 12.694 12.694 0 00.81 3.93zm-21.07-6.48h10.54a.81.81 0 100-1.62h-10.54a.81.81 0 100 1.62zm0-3.25h10.54a.8.8 0 100-1.6h-10.54a.8.8 0 100 1.6zm23.61-5.92a.8.8 0 00.73-.46.785.785 0 00-.39-1.06l-4.67-2.16a.825.825 0 00-1.08.39.793.793 0 00.39 1.06l4.68 2.16a.8.8 0 00.34.07zm-2.54 1.92a.8.8 0 00.81-.8v-2.4a.81.81 0 00-1.62 0v2.4a.8.8 0 00.81.8zm7.43-.88a.8.8 0 00.78-.61l1.36-5.43a.814.814 0 00-1.58-.39l-1.35 5.44a.8.8 0 00.59.97.68.68 0 00.2.02zm-23.64.08h1.62v-5.6h-1.62v5.6zm2.43 0h1.63v-5.6h-1.63v5.6zm-.07-6.77a9.521 9.521 0 012.94-3.29l-.9-1.33a11.153 11.153 0 00-3.45 3.83zm15.97-3.66l.18-1.59c-.96-.11-1.96-.26-2.92-.4-1.32-.2-2.68-.41-4.01-.5l-.11 1.6c1.26.08 2.59.28 3.88.48a69 69 0 002.98.41zm7.25-.75a10.462 10.462 0 004.07-3.22l-1.28-.99a8.8 8.8 0 01-3.44 2.74zm-25.58 27.16a1.62 1.62 0 11-1.62-1.6 1.609 1.609 0 011.62 1.6zm28.64-5.78a1.625 1.625 0 11-1.63-1.6 1.611 1.611 0 011.63 1.6z" transform="translate(-1023 -1568)" fill="#fff" fill-rule="evenodd" filter="url(#a)"/></svg>