<svg xmlns="http://www.w3.org/2000/svg" width="36" height="33"><defs><filter id="a" x="623" y="1573" width="36" height="33" filterUnits="userSpaceOnUse"><feFlood result="flood" flood-color="#222"/><feComposite result="composite" operator="in" in2="SourceGraphic"/><feBlend result="blend" in2="SourceGraphic"/></filter></defs><path d="M627.959 1605.99a3.26 3.26 0 113.306-3.26 3.285 3.285 0 01-3.306 3.26zm0-5.07a1.81 1.81 0 101.837 1.81 1.824 1.824 0 00-1.837-1.81zm13.225-7.98a3.26 3.26 0 113.306-3.26 3.285 3.285 0 01-3.306 3.26zm0-5.07a1.81 1.81 0 101.836 1.81 1.824 1.824 0 00-1.836-1.81zm-12.49 12.86h-1.469a11.7 11.7 0 0111.938-11.61v1.45a10.141 10.141 0 00-10.469 10.16zm26.082-21.2a3.26 3.26 0 113.306-3.26 3.286 3.286 0 01-3.306 3.26zm0-5.08a1.815 1.815 0 101.836 1.82 1.833 1.833 0 00-1.836-1.82zm-11.2 15.59v-1.45a10.137 10.137 0 0010.3-10.33h1.469a11.687 11.687 0 01-11.774 11.78zm10.286.63h-10.291v-1.44h10.286v1.44zm-14.694 0h-11.02v-1.44h11.02v1.44zm19.832 2.09h-5.877v-5.68H659v5.68zm-4.408-1.38h2.939v-2.87h-2.939v2.87zm-25.714 1.38H623v-5.68h5.878v5.68zm-4.409-1.38h2.939v-2.87h-2.939v2.87z" transform="translate(-623 -1573)" fill="#fff" fill-rule="evenodd" filter="url(#a)"/></svg>